Work

Found untouched VOB for this one...

Cropped out black borders, decreased saturation a bit and ran through
SS_IQ to remove rainbow color errors from video. Encoded with settings
listed below.

Comments/suggestions always welcome.

File

Format                           : AVI
Format/Info                      : Audio Video Interleave
File size                        : 48.3 MiB
Duration                         : 5mn 5s
Overall bit rate                 : 1 329 Kbps
Writing library                  : VirtualDub build 30091/release

Video

Format                           : AVC
Format/Info                      : Advanced Video Codec
Format profile                   : High@L4.0
Format settings, CABAC           : Yes
Format settings, ReFrames        : 16 frames
Codec ID                         : H264
Duration                         : 5mn 5s
Bit rate                         : 1 000 Kbps
Width                            : 688 pixels
Height                           : 560 pixels
Display aspect ratio             : 1.229
Frame rate                       : 25.000 fps
Resolution                       : 24 bits
Colorimetry                      : 4:2:0
Scan type                        : Progressive
Bits/(Pixel*Frame)               : 0.104
Stream size                      : 36.3 MiB (75%)
Writing library                  : x264 core 68 r1189bm 9d0b5e9
Encoding settings                : cabac=1 / ref=16 / deblock=1:-1:-1 /
  analyse=0x3:0x133 / me=tesa / subme=9 / psy_rd=0.0:0.0 / mixed_ref=1 /
  me_range=32 / chroma_me=1 / trellis=2 / 8x8dct=1 / cqm=0 / deadzone=21,11 /
  chroma_qp_offset=0 / threads=2 / thread_queue=2 / nr=0 / decimate=1 /
  mbaff=0 / bframes=4 / b_pyramid=1 / b_adapt=2 / b_bias=0 / direct=3 /
  wpredb=1 / keyint=240 / keyint_min=24 / scenecut=40 / rc=2pass /
  bitrate=1000 / ratetol=1.0 / qcomp=0.60 / qpmin=10 / qpmax=51 / qpstep=4 /
  cplxblur=20.0 / qblur=0.5 / ip_ratio=1.40 / pb_ratio=1.30 / aq=1:1.00

Audio

Format                           : MPEG Audio
Format version                   : Version 1
Format profile                   : Layer 3
Codec ID                         : 55
Codec ID/Hint                    : MP3
Duration                         : 5mn 5s
Bit rate mode                    : Constant
Bit rate                         : 320 Kbps
Channel(s)                       : 2 channels
Sampling rate                    : 48.0 KHz
Resolution                       : 16 bits
Stream size                      : 11.6 MiB (24%)
Alignment                        : Split accross interleaves
Interleave, duration             : 40 ms (1.00 video frame)
Interleave, preload duration     : 500 ms
Writing library                  : LAME3.98.2

 
http://i18.photobucket.com/albums/b116/mattlb0619/music_video/oneinamillion/snapshot20090727174224.jpg 
http://i18.photobucket.com/albums/b116/mattlb0619/music_video/oneinamillion/snapshot20090727174236.jpg 
http://i18.photobucket.com/albums/b116/mattlb0619/music_video/oneinamillion/snapshot20090727174257.jpg 
http://i18.photobucket.com/albums/b116/mattlb0619/music_video/oneinamillion/thumbs20090727174303.jpg